<?xml version="1.0" encoding="UTF-8" standalone="no"?>
<!-- Created with Inkscape (http://www.inkscape.org/) -->

<svg
   width="131.79778mm"
   height="126.15333mm"
   viewBox="0 0 467.00002 446.99997"
   id="svg2"
   version="1.1"
   inkscape:version="1.1 (c68e22c387, 2021-05-23)"
   sodipodi:docname="logo.svg"
   inkscape:export-filename="C:\Users\tgdej\Documents\Steemit\path4175-1-6.png"
   inkscape:export-xdpi="90"
   inkscape:export-ydpi="90"
   xmlns:inkscape="http://www.inkscape.org/namespaces/inkscape"
   xmlns:sodipodi="http://sodipodi.sourceforge.net/DTD/sodipodi-0.dtd"
   xmlns="http://www.w3.org/2000/svg"
   xmlns:svg="http://www.w3.org/2000/svg"
   xmlns:rdf="http://www.w3.org/1999/02/22-rdf-syntax-ns#"
   xmlns:cc="http://creativecommons.org/ns#"
   xmlns:dc="http://purl.org/dc/elements/1.1/"
   xmlns:ns0="http://www.iki.fi/pav/software/textext/">
  <sodipodi:namedview
     id="base"
     pagecolor="#ffffff"
     bordercolor="#666666"
     borderopacity="1.0"
     inkscape:pageopacity="0.0"
     inkscape:pageshadow="2"
     inkscape:zoom="0.9899495"
     inkscape:cx="321.73358"
     inkscape:cy="286.37824"
     inkscape:document-units="px"
     inkscape:current-layer="layer1"
     showgrid="true"
     fit-margin-top="0"
     fit-margin-left="0"
     fit-margin-right="0"
     fit-margin-bottom="0"
     inkscape:window-width="1920"
     inkscape:window-height="1017"
     inkscape:window-x="-8"
     inkscape:window-y="-8"
     inkscape:window-maximized="1"
     showguides="true"
     inkscape:guide-bbox="true"
     inkscape:pagecheckerboard="0">
    <inkscape:grid
       type="xygrid"
       id="grid4265"
       originx="-1.5000017"
       originy="118.49997" />
    <sodipodi:guide
       position="268.50001,218.49998"
       orientation="0,1"
       id="guide6435" />
  </sodipodi:namedview>
  <defs
     id="defs4" />
  <metadata
     id="metadata7">
    <rdf:RDF>
      <cc:Work
         rdf:about="">
        <dc:format>image/svg+xml</dc:format>
        <dc:type
           rdf:resource="http://purl.org/dc/dcmitype/StillImage" />
      </cc:Work>
    </rdf:RDF>
  </metadata>
  <g
     inkscape:label="Layer 1"
     inkscape:groupmode="layer"
     id="layer1"
     transform="translate(-108.63302,-187.42001)">
    <g
       id="g972"
       transform="matrix(1.728,0,0,1.728,-249.07284,-305.61966)">
      <g
         id="g6446"
         transform="translate(1.8510835)">
        <circle
           style="opacity:0.99;fill:#ffcc00;fill-opacity:1;fill-rule:nonzero;stroke:#000000;stroke-width:3.2;stroke-linecap:butt;stroke-linejoin:round;stroke-miterlimit:4;stroke-dasharray:none;stroke-dashoffset:0;stroke-opacity:1"
           id="path4175-1"
           cx="273.80817"
           cy="445.71442"
           r="8.9285717"
           transform="matrix(1.6103896,0,0,1.6249966,-167.11849,-292.00402)" />
        <ellipse
           style="opacity:0.99;fill:#000000;fill-opacity:1;fill-rule:nonzero;stroke:#000000;stroke-width:3.2;stroke-linecap:butt;stroke-linejoin:round;stroke-miterlimit:4;stroke-dasharray:none;stroke-dashoffset:0;stroke-opacity:1"
           id="path4194"
           cx="273.55563"
           cy="445.33563"
           rx="1.5152289"
           ry="1.3889598"
           transform="matrix(1.6103896,0,0,1.6249966,-167.11849,-292.00402)" />
        <circle
           r="8.9285717"
           style="opacity:0.99;fill:#ffcc00;fill-opacity:1;fill-rule:nonzero;stroke:#000000;stroke-width:3.2;stroke-linecap:butt;stroke-linejoin:round;stroke-miterlimit:4;stroke-dasharray:none;stroke-dashoffset:0;stroke-opacity:1"
           id="path4175-1-6"
           cx="354.76663"
           cy="443.62805"
           transform="matrix(1.6103896,0,0,1.6249966,-167.11849,-292.00402)" />
        <ellipse
           style="opacity:0.99;fill:#000000;fill-opacity:1;fill-rule:nonzero;stroke:#000000;stroke-width:3.2;stroke-linecap:butt;stroke-linejoin:round;stroke-miterlimit:4;stroke-dasharray:none;stroke-dashoffset:0;stroke-opacity:1"
           id="path4194-5"
           cx="354.5141"
           cy="443.24927"
           rx="1.5152289"
           ry="1.3889598"
           transform="matrix(1.6103896,0,0,1.6249966,-167.11849,-292.00402)" />
        <g
           style="font-style:normal;font-variant:normal;font-weight:normal;font-stretch:normal;letter-spacing:normal;word-spacing:normal;text-anchor:start;fill:#000000;fill-opacity:1;fill-rule:evenodd;stroke:#000000;stroke-linecap:butt;stroke-linejoin:miter;stroke-miterlimit:10.433;stroke-dasharray:none;stroke-dashoffset:0;stroke-opacity:1"
           id="content"
           transform="matrix(25.628909,0,0,-19.993992,-3597.8658,14612.711)"
           xml:space="preserve"
           stroke-miterlimit="10.433"
           font-style="normal"
           font-variant="normal"
           font-weight="normal"
           font-stretch="normal"
           font-size-adjust="none"
           letter-spacing="normal"
           word-spacing="normal"
           ns0:text="$\\infty$"
           ns0:preamble="C:\\Users\\tgdej\\AppData\\Roaming\\inkscape\\extensions\\default_packages.tex"><path
             style="fill:#000000;stroke-width:0"
             inkscape:connector-curvature="0"
             d="m 153.78,709.93 -0.05,0.06 -0.05,0.06 -0.04,0.05 -0.05,0.06 -0.04,0.05 -0.03,0.05 -0.04,0.04 -0.04,0.04 -0.03,0.05 -0.03,0.04 -0.03,0.03 -0.03,0.04 -0.03,0.03 -0.03,0.03 -0.03,0.03 -0.02,0.03 -0.03,0.03 -0.02,0.03 -0.03,0.02 -0.02,0.03 -0.05,0.05 -0.04,0.04 -0.05,0.05 -0.05,0.04 -0.05,0.04 -0.03,0.03 -0.03,0.02 c -0.56,0.45 -1.12,0.63 -1.63,0.63 -1.16,0 -1.92,-1.1 -1.92,-2.26 h 0.22 c 0,0.97 0.67,1.78 1.55,1.78 0.57,0 1.02,-0.42 1.23,-0.63 0.25,-0.26 0.48,-0.57 1.09,-1.36 v 0 c -0.41,-0.71 -1.15,-1.72 -2.28,-1.72 -1.05,0 -1.59,1.04 -1.59,1.93 h -0.22 c 0,-1.14 0.74,-2.24 1.89,-2.24 1.14,0 1.97,0.9 2.46,1.69 0.54,-0.67 0.66,-0.82 0.97,-1.07 0.55,-0.45 1.11,-0.62 1.62,-0.62 1.17,0 1.93,1.09 1.93,2.25 h -0.22 c 0,-0.97 -0.67,-1.78 -1.55,-1.78 -0.58,0 -1.03,0.42 -1.24,0.63 -0.24,0.27 -0.47,0.57 -1.08,1.36 v 0 c 0.41,0.71 1.14,1.72 2.27,1.72 1.06,0 1.6,-1.03 1.6,-1.93 h 0.22 c 0,1.14 -0.74,2.25 -1.89,2.25 -1.15,0 -1.97,-0.91 -2.46,-1.7 z"
             id="path4166" /></g>
        <path
           sodipodi:nodetypes="cccc"
           inkscape:connector-curvature="0"
           id="path4233-3"
           d="m 467.39294,353.7448 -25.52649,-34.55641 -28.78519,33.50925 -64.62777,-0.16225"
           style="fill:none;fill-rule:evenodd;stroke:#000000;stroke-width:6.09567;stroke-linecap:butt;stroke-linejoin:miter;stroke-miterlimit:4;stroke-dasharray:none;stroke-opacity:1" />
        <path
           sodipodi:nodetypes="cccc"
           inkscape:connector-curvature="0"
           id="path4233-3-2"
           d="m 213.17093,354.63936 25.52649,-34.55641 28.78519,33.50925 64.62777,-0.16225"
           style="fill:none;fill-rule:evenodd;stroke:#000000;stroke-width:6.09567;stroke-linecap:butt;stroke-linejoin:miter;stroke-miterlimit:4;stroke-dasharray:none;stroke-opacity:1" />
        <path
           sodipodi:nodetypes="cccc"
           inkscape:connector-curvature="0"
           id="path4267"
           d="m 321.25284,485.79748 18.38017,38.33683 17.5,-38.21429 z"
           style="fill:#000000;fill-rule:evenodd;stroke:#000000;stroke-width:1px;stroke-linecap:butt;stroke-linejoin:miter;stroke-opacity:1" />
        <ellipse
           ry="5"
           rx="17.5"
           cy="485.92001"
           cx="339.633"
           id="path4269"
           style="opacity:0.99;fill:#000000;fill-opacity:1;fill-rule:nonzero;stroke:#000000;stroke-width:5;stroke-linecap:butt;stroke-linejoin:round;stroke-miterlimit:4;stroke-dasharray:none;stroke-dashoffset:0;stroke-opacity:1" />
      </g>
    </g>
    <g
       id="g4211"
       transform="matrix(1.6103896,0,0,1.6249966,-167.11849,-292.00402)" />
  </g>
</svg>
